<?xml version="1.0" encoding="UTF-8" standalone="no"?>
<svg
   xmlns:dc="http://purl.org/dc/elements/1.1/"
   xmlns:cc="http://creativecommons.org/ns#"
   xmlns:rdf="http://www.w3.org/1999/02/22-rdf-syntax-ns#"
   xmlns:svg="http://www.w3.org/2000/svg"
   xmlns="http://www.w3.org/2000/svg"
   xmlns:xlink="http://www.w3.org/1999/xlink"
   xmlns:sodipodi="http://sodipodi.sourceforge.net/DTD/sodipodi-0.dtd"
   xmlns:inkscape="http://www.inkscape.org/namespaces/inkscape"
   width="300"
   height="300"
   viewBox="0 0 300 300"
   version="1.1"
   id="svg1890"
   sodipodi:docname="Logo Tech Amazon.svg"
   inkscape:export-filename="C:\Users\Fernando Paiva\Desktop\logo.png"
   inkscape:export-xdpi="91.519997"
   inkscape:export-ydpi="91.519997"
   inkscape:version="0.92.4 (5da689c313, 2019-01-14)">
  <metadata
     id="metadata1896">
    <rdf:RDF>
      <cc:Work
         rdf:about="">
        <dc:format>image/svg+xml</dc:format>
        <dc:type
           rdf:resource="http://purl.org/dc/dcmitype/StillImage" />
        <dc:title>Produce by Acme CAD Converter</dc:title>
      </cc:Work>
    </rdf:RDF>
  </metadata>
  <defs
     id="defs1894">
    <linearGradient
       inkscape:collect="always"
       id="linearGradient1865">
      <stop
         style="stop-color:#d900b7;stop-opacity:1;"
         offset="0"
         id="stop1861" />
      <stop
         style="stop-color:#d900b7;stop-opacity:0.54901963"
         offset="1"
         id="stop1863" />
    </linearGradient>
    <linearGradient
       inkscape:collect="always"
       id="linearGradient1857">
      <stop
         style="stop-color:#d900b7;stop-opacity:1;"
         offset="0"
         id="stop1853" />
      <stop
         style="stop-color:#d900b7;stop-opacity:0.54901963"
         offset="1"
         id="stop1855" />
    </linearGradient>
    <linearGradient
       inkscape:collect="always"
       id="linearGradient1849">
      <stop
         style="stop-color:#d900b7;stop-opacity:1;"
         offset="0"
         id="stop1845" />
      <stop
         style="stop-color:#d900b7;stop-opacity:0.54773867"
         offset="1"
         id="stop1847" />
    </linearGradient>
    <linearGradient
       inkscape:collect="always"
       id="linearGradient1866">
      <stop
         style="stop-color:#219d19;stop-opacity:1;"
         offset="0"
         id="stop1862" />
      <stop
         style="stop-color:#219d19;stop-opacity:0.54901963"
         offset="1"
         id="stop1864" />
    </linearGradient>
    <linearGradient
       inkscape:collect="always"
       xlink:href="#linearGradient1866"
       id="linearGradient1868"
       x1="499.46796"
       y1="244.22389"
       x2="312.72797"
       y2="243.3239"
       gradientUnits="userSpaceOnUse" />
    <linearGradient
       inkscape:collect="always"
       xlink:href="#linearGradient1866"
       id="linearGradient1819"
       gradientUnits="userSpaceOnUse"
       x1="499.46796"
       y1="244.22389"
       x2="312.72797"
       y2="243.3239" />
    <linearGradient
       inkscape:collect="always"
       xlink:href="#linearGradient1866"
       id="linearGradient1821"
       gradientUnits="userSpaceOnUse"
       x1="499.46796"
       y1="244.22389"
       x2="312.72797"
       y2="243.3239" />
    <linearGradient
       inkscape:collect="always"
       xlink:href="#linearGradient1866"
       id="linearGradient1823"
       gradientUnits="userSpaceOnUse"
       x1="499.46796"
       y1="244.22389"
       x2="312.72797"
       y2="243.3239" />
    <linearGradient
       inkscape:collect="always"
       xlink:href="#linearGradient1866"
       id="linearGradient1825"
       gradientUnits="userSpaceOnUse"
       x1="499.46796"
       y1="244.22389"
       x2="312.72797"
       y2="243.3239" />
    <linearGradient
       inkscape:collect="always"
       xlink:href="#linearGradient1866"
       id="linearGradient1827"
       gradientUnits="userSpaceOnUse"
       x1="499.46796"
       y1="244.22389"
       x2="312.72797"
       y2="243.3239" />
    <linearGradient
       inkscape:collect="always"
       xlink:href="#linearGradient1866"
       id="linearGradient1829"
       gradientUnits="userSpaceOnUse"
       x1="499.46796"
       y1="244.22389"
       x2="312.72797"
       y2="243.3239" />
    <linearGradient
       inkscape:collect="always"
       xlink:href="#linearGradient1849"
       id="linearGradient1851"
       x1="228.5757"
       y1="364.74158"
       x2="204.58937"
       y2="364.74158"
       gradientUnits="userSpaceOnUse"
       gradientTransform="matrix(1.6169387,0,0,1.6169387,-172.60133,-214.69103)" />
    <linearGradient
       inkscape:collect="always"
       xlink:href="#linearGradient1857"
       id="linearGradient1859"
       x1="201.8058"
       y1="336.41641"
       x2="178.37799"
       y2="336.47238"
       gradientUnits="userSpaceOnUse"
       gradientTransform="matrix(1.6169387,0,0,1.6169387,-172.60133,-214.69103)" />
    <linearGradient
       inkscape:collect="always"
       xlink:href="#linearGradient1865"
       id="linearGradient1867"
       x1="156.24037"
       y1="413.02881"
       x2="132.66978"
       y2="413.07867"
       gradientUnits="userSpaceOnUse"
       gradientTransform="matrix(1.6169387,0,0,1.6169387,-172.60133,-214.69103)" />
  </defs>
  <sodipodi:namedview
     pagecolor="#ffffff"
     bordercolor="#666666"
     borderopacity="1"
     objecttolerance="10"
     gridtolerance="10"
     guidetolerance="10"
     inkscape:pageopacity="0"
     inkscape:pageshadow="2"
     inkscape:window-width="1920"
     inkscape:window-height="1027"
     id="namedview1892"
     showgrid="false"
     inkscape:pagecheckerboard="true"
     inkscape:zoom="1.4142136"
     inkscape:cx="13.893042"
     inkscape:cy="112.82999"
     inkscape:window-x="-8"
     inkscape:window-y="22"
     inkscape:window-maximized="1"
     inkscape:current-layer="layer1" />
  <title
     id="title2">Produce by Acme CAD Converter</title>
  <desc
     id="desc4">Produce by Acme CAD Converter</desc>
  <g
     inkscape:groupmode="layer"
     id="layer3"
     inkscape:label="Fundo"
     transform="translate(0,-300)"
     style="display:inline"
     sodipodi:insensitive="true">
    <ellipse
       style="display:inline;opacity:1;fill:#ffffff;fill-opacity:1;stroke:#ffffff;stroke-width:1.01676321;stroke-miterlimit:4;stroke-dasharray:none;stroke-opacity:1;paint-order:normal"
       id="path1496"
       cx="150.10464"
       cy="450.08475"
       rx="149.74004"
       ry="149.87199" />
  </g>
  <g
     inkscape:groupmode="layer"
     id="layer1"
     inkscape:label="Cores"
     style="display:inline"
     transform="translate(0,-300)"
     sodipodi:insensitive="true">
    <path
       style="opacity:1;fill:url(#linearGradient1867);fill-opacity:1;stroke:#000000;stroke-width:0.51385772;stroke-linecap:round;stroke-linejoin:round;stroke-miterlimit:4;stroke-dasharray:none;stroke-opacity:1;paint-order:normal"
       d="m 53.898406,471.28076 c -5.224943,-2.19342 -8.37212,-5.16746 -10.683793,-10.096 -1.160477,-2.47417 -1.336594,-3.52677 -1.336594,-7.98824 0,-4.50355 0.1707,-5.50282 1.381334,-8.08596 1.762254,-3.76014 5.491238,-7.48914 9.416228,-9.41623 2.781539,-1.36568 3.569391,-1.51054 8.215164,-1.51054 4.503546,0 5.502819,0.1707 8.085958,1.38134 3.765735,1.76488 7.780577,5.77971 9.545433,9.54543 1.211253,2.58445 1.381357,3.58149 1.381357,8.09676 0,4.7711 -0.122726,5.39859 -1.670008,8.54164 -1.981649,4.02529 -5.209688,7.18367 -9.28794,9.08753 -4.21405,1.96726 -10.945811,2.16602 -15.047139,0.44427 z"
       id="path2707"
       inkscape:connector-curvature="0" />
    <path
       style="opacity:1;fill:url(#linearGradient1851);fill-opacity:1;stroke:#000000;stroke-width:0.51385772;stroke-linecap:round;stroke-linejoin:round;stroke-miterlimit:4;stroke-dasharray:none;stroke-opacity:1;paint-order:normal"
       d="m 171.37015,393.46358 c -15.20378,-5.45812 -17.74873,-25.87113 -4.30843,-34.55802 9.51699,-6.15113 22.28161,-2.87534 27.58766,7.07984 5.25111,9.85206 1.11682,22.04885 -9.05815,26.72299 -3.86796,1.77685 -10.40781,2.12414 -14.22108,0.75519 z"
       id="path2709"
       inkscape:connector-curvature="0" />
    <path
       style="opacity:1;fill:url(#linearGradient1859);fill-opacity:1;stroke:#000000;stroke-width:0.51385772;stroke-linecap:round;stroke-linejoin:round;stroke-miterlimit:4;stroke-dasharray:none;stroke-opacity:1;paint-order:normal"
       d="m 131.17091,348.59871 c -5.76469,-1.13777 -10.90638,-5.16306 -13.61164,-10.65618 -1.54747,-3.1422 -1.68575,-3.8244 -1.68575,-8.3167 0,-4.30564 0.17748,-5.27795 1.47692,-8.09114 1.81317,-3.92541 5.82981,-7.87678 9.95506,-9.79334 2.50384,-1.16327 3.6635,-1.37517 7.58075,-1.38529 4.14292,-0.0113 4.98346,0.15797 8.06794,1.61922 4.22347,2.00082 7.46357,5.15281 9.44474,9.18781 1.37068,2.79166 1.49937,3.52053 1.49211,8.45067 -0.006,4.8777 -0.14715,5.67599 -1.45814,8.31823 -1.60674,3.23824 -5.73543,7.45278 -8.86508,9.04941 -2.02824,1.03472 -7.14664,2.20948 -9.16132,2.10264 -0.584,-0.031 -2.04002,-0.24936 -3.23559,-0.48533 z"
       id="path2711"
       inkscape:connector-curvature="0" />
    <g
       id="g1844"
       style="fill:url(#linearGradient1868);fill-opacity:1"
       transform="matrix(1.6169388,0,0,1.6169388,-506.45967,57.096417)">
      <g
         style="fill:url(#linearGradient1823);fill-opacity:1"
         id="g1934">
        <path
           style="opacity:1;fill:url(#linearGradient1819);fill-opacity:1;stroke:#000000;stroke-width:0.31779662;stroke-linecap:round;stroke-linejoin:round;stroke-miterlimit:4;stroke-dasharray:none;stroke-opacity:1;paint-order:normal"
           d="m 407.69735,335.30282 c 0.0881,-0.39328 1.85017,-13.26583 3.9157,-28.60567 l 3.75551,-27.89063 21.43469,-19.10941 c 14.71435,-13.1181 21.55322,-19.02038 21.81273,-18.82547 2.92076,2.19364 5.15289,2.9852 8.41804,2.9852 4.81321,0 8.52162,-2.11687 11.19587,-6.39093 1.86079,-2.97396 2.00649,-8.35767 0.31859,-11.77258 -2.78038,-5.62523 -8.75254,-8.3587 -14.8133,-6.78007 -3.1765,0.82737 -6.05717,3.01223 -7.74703,5.87579 -1.96641,3.33218 -2.17658,8.36552 -0.49128,11.76571 l 0.91193,1.8399 -20.03167,17.84622 c -18.51243,16.49274 -20.03713,17.77845 -20.10362,16.95249 -0.0396,-0.49155 1.61403,-13.26183 3.67468,-28.37841 l 3.74663,-27.48467 2.92621,-0.54188 c 4.74518,-0.87872 8.97636,-3.25058 11.87842,-6.65866 7.00547,-8.22698 6.63055,-20.2599 -0.86592,-27.7912 -2.4707,-2.48218 -5.19111,-4.15319 -8.5762,-5.26791 -3.07897,-1.01392 -8.86386,-1.02316 -11.90374,-0.019 -1.12862,0.37281 -2.08725,0.64262 -2.13029,0.59958 -0.043,-0.043 0.26703,-1.0295 0.68904,-2.19213 2.67702,-7.37511 0.85863,-15.75883 -4.60461,-21.22967 -1.13938,-1.14096 -2.85814,-2.5453 -3.81947,-3.12076 l -1.74788,-1.0463 4.60805,0.19643 c 38.07466,1.623 71.3669,26.48708 83.83674,62.61289 5.74055,16.63066 6.59786,34.74624 2.45145,51.80085 -5.20196,21.39626 -17.13523,39.55917 -34.67195,52.77208 -11.6856,8.80443 -25.82453,14.85599 -40.33446,17.26342 -3.75338,0.62274 -10.42666,1.30984 -12.72156,1.30984 -1.05049,0 -1.15495,-0.0739 -1.0113,-0.71504 z"
           id="path2701"
           inkscape:connector-curvature="0" />
        <path
           style="opacity:1;fill:url(#linearGradient1821);fill-opacity:1;stroke:#000000;stroke-width:0.31779662;stroke-linecap:round;stroke-linejoin:round;stroke-miterlimit:4;stroke-dasharray:none;stroke-opacity:1;paint-order:normal"
           d="m 400.21728,335.79879 c -0.52764,-0.13788 -0.55603,-3.90994 -0.55394,-73.61249 l 0.002,-73.46717 2.46073,-0.68519 c 1.3534,-0.37686 2.4915,-0.65594 2.5291,-0.62019 0.0376,0.0358 -0.28208,0.93267 -0.71043,1.99314 -0.42834,1.06047 -0.94302,3.27017 -1.14373,4.91044 -1.18781,9.70705 4.784,18.91043 14.18818,21.86591 l 1.59731,0.50199 -7.20815,53.23093 c -3.96448,29.27702 -7.60003,56.12686 -8.07899,59.66632 l -0.87086,6.43538 -0.82763,-0.0369 c -0.4552,-0.0203 -1.0779,-0.10226 -1.38378,-0.1822 z"
           id="path2703"
           inkscape:connector-curvature="0" />
      </g>
      <g
         style="fill:url(#linearGradient1829);fill-opacity:1"
         id="g1938">
        <path
           style="opacity:1;fill:url(#linearGradient1825);fill-opacity:1;stroke:#000000;stroke-width:0.31779662;stroke-linecap:round;stroke-linejoin:round;stroke-miterlimit:4;stroke-dasharray:none;stroke-opacity:1;paint-order:normal"
           d="m 383.29461,333.15744 c -32.2422,-8.39391 -57.20689,-32.53744 -66.41788,-64.23325 -2.79226,-9.60839 -3.80037,-17.52424 -3.55667,-27.92752 0.24489,-10.45425 1.53919,-18.02386 4.67604,-27.34755 4.66694,-13.87159 11.56302,-25.10386 21.89761,-35.6666 l 3.66419,-3.74508 0.38839,2.10438 c 0.76473,4.1435 2.89197,7.07041 6.38877,8.79042 1.97191,0.96995 2.35074,1.04452 5.30636,1.04452 2.98404,0 3.31189,-0.0663 5.24853,-1.06114 l 2.06568,-1.06114 15.49259,15.67331 15.49258,15.67332 -0.0215,58.16325 c -0.0139,37.49772 -0.13016,57.93742 -0.32731,57.52765 -0.16818,-0.34957 -7.00356,-16.15201 -15.18972,-35.11652 l -14.88393,-34.48094 1.94322,-1.98106 c 2.33547,-2.38094 3.95614,-4.97147 4.9513,-7.91434 1.0109,-2.98941 1.2542,-8.61861 0.49944,-11.55587 -1.725,-6.71317 -6.75295,-12.15759 -13.51811,-14.63785 -1.80968,-0.66347 -2.61704,-0.75733 -6.51483,-0.75733 -4.87682,0 -6.58824,0.40937 -10.32839,2.47054 -2.7023,1.48923 -6.5998,5.61742 -8.00186,8.47549 -1.81291,3.69558 -2.25981,5.87806 -2.08236,10.16949 0.24407,5.90254 1.882,9.74914 5.85547,13.7513 3.89117,3.91925 7.95908,5.65703 13.76265,5.8793 2.59652,0.0994 4.17065,0.004 5.43681,-0.32835 l 1.78214,-0.46831 14.86996,34.51841 c 8.17847,18.98513 14.92865,34.62567 15.00038,34.75676 0.18164,0.33195 0.0494,0.30756 -3.87954,-0.71529 z"
           id="path2699"
           inkscape:connector-curvature="0" />
        <path
           style="opacity:1;fill:url(#linearGradient1827);fill-opacity:1;stroke:#000000;stroke-width:0.31779662;stroke-linecap:round;stroke-linejoin:round;stroke-miterlimit:4;stroke-dasharray:none;stroke-opacity:1;paint-order:normal"
           d="m 379.40237,196.53758 -14.36847,-14.58621 1.02654,-1.98967 c 0.9579,-1.85663 1.02655,-2.20445 1.02655,-5.20152 0,-2.98717 -0.0729,-3.3601 -1.04256,-5.33137 -1.25548,-2.5524 -3.53697,-4.72896 -5.86869,-5.59877 l -1.63456,-0.60975 1.73053,-1.00665 c 2.28101,-1.32686 7.50917,-3.84329 10.82945,-5.21245 3.43055,-1.41463 10.71183,-3.77711 11.25938,-3.65321 0.26666,0.0603 -0.17107,0.80051 -1.18428,2.00251 -1.93746,2.29844 -3.88222,6.2609 -4.4136,8.99273 -0.24037,1.23575 -0.32429,3.30223 -0.21941,5.40255 0.27812,5.56948 2.10387,9.54576 6.15334,13.4013 2.59709,2.47272 6.35929,4.53481 9.34542,5.12229 l 1.89879,0.37357 v 11.24043 c 0,6.18224 -0.0382,11.24043 -0.085,11.24043 -0.0467,0 -6.55079,-6.56379 -14.45345,-14.58621 z"
           id="path2705"
           inkscape:connector-curvature="0" />
      </g>
    </g>
  </g>
</svg>
